<?xml-stylesheet type="text/css" href="../style/main-game.css" ?>
<!-- Created with Inkscape (http://www.inkscape.org/) -->
<svg
   id="free-item-unchecked-svg"
   width="512"
   height="512"
   viewBox="0 0 512 512"
   version="1.1"
   xmlns="http://www.w3.org/2000/svg"
   xmlns:svg="http://www.w3.org/2000/svg">
   <title>Click for a free item!</title>
   <path
      style="display:inline;"
      d="M 0 0 L 0 512 L 512 512 L 512 0 L 0 0 z M 63.859375 66.15625 L 158.07812 66.15625 L 158.07812 89.40625 L 91.609375 89.40625 L 91.609375 121.9375 L 148.98438 121.9375 L 148.98438 145.1875 L 91.609375 145.1875 L 91.609375 203.59375 L 63.859375 203.59375 L 63.859375 66.15625 z M 226.79688 101.78125 C 232.79688 101.78125 238.57812 103.4375 244.14062 106.75 L 235.98438 129.71875 C 231.54688 126.84375 227.42188 125.40625 223.60938 125.40625 C 219.92188 125.40625 216.79688 126.4375 214.23438 128.5 C 211.67188 130.5 209.64062 134.15625 208.14062 139.46875 C 206.70312 144.78125 205.98438 155.90625 205.98438 172.84375 L 205.98438 203.59375 L 179.64062 203.59375 L 179.64062 104.03125 L 204.10938 104.03125 L 204.10938 118.1875 C 208.29688 111.5 212.04688 107.09375 215.35938 104.96875 C 218.73438 102.84375 222.54688 101.78125 226.79688 101.78125 z M 293.45312 101.78125 C 308.26562 101.78125 319.95312 106.6875 328.51562 116.5 C 337.07812 126.25 341.17188 141.21875 340.79688 161.40625 L 274.79688 161.40625 C 274.98438 169.21875 277.10938 175.3125 281.17188 179.6875 C 285.23438 184 290.29688 186.15625 296.35938 186.15625 C 300.48438 186.15625 303.95312 185.03125 306.76562 182.78125 C 309.57812 180.53125 311.70312 176.90625 313.14062 171.90625 L 339.39062 176.3125 C 336.01562 185.9375 330.67188 193.28125 323.35938 198.34375 C 316.10938 203.34375 307.01562 205.84375 296.07812 205.84375 C 278.76562 205.84375 265.95312 200.1875 257.64062 188.875 C 251.07812 179.8125 247.79688 168.375 247.79688 154.5625 C 247.79688 138.0625 252.10938 125.15625 260.73438 115.84375 C 269.35938 106.46875 280.26562 101.78125 293.45312 101.78125 z M 400.23438 101.78125 C 415.04688 101.78125 426.73438 106.6875 435.29688 116.5 C 443.85938 126.25 447.95312 141.21875 447.57812 161.40625 L 381.57812 161.40625 C 381.76562 169.21875 383.89062 175.3125 387.95312 179.6875 C 392.01562 184 397.07812 186.15625 403.14062 186.15625 C 407.26562 186.15625 410.73438 185.03125 413.54688 182.78125 C 416.35938 180.53125 418.48438 176.90625 419.92188 171.90625 L 446.17188 176.3125 C 442.79688 185.9375 437.45312 193.28125 430.14062 198.34375 C 422.89062 203.34375 413.79688 205.84375 402.85938 205.84375 C 385.54688 205.84375 372.73438 200.1875 364.42188 188.875 C 357.85938 179.8125 354.57812 168.375 354.57812 154.5625 C 354.57812 138.0625 358.89062 125.15625 367.51562 115.84375 C 376.14062 106.46875 387.04688 101.78125 400.23438 101.78125 z M 295.04688 121.9375 C 289.29688 121.9375 284.54688 124.03125 280.79688 128.21875 C 277.04688 132.40625 275.20312 138.09375 275.26562 145.28125 L 314.64062 145.28125 C 314.45312 137.65625 312.48438 131.875 308.73438 127.9375 C 304.98438 123.9375 300.42188 121.9375 295.04688 121.9375 z M 401.82812 121.9375 C 396.07812 121.9375 391.32812 124.03125 387.57812 128.21875 C 383.82812 132.40625 381.98438 138.09375 382.04688 145.28125 L 421.42188 145.28125 C 421.23438 137.65625 419.26562 131.875 415.51562 127.9375 C 411.76562 123.9375 407.20312 121.9375 401.82812 121.9375 z M 68.21875 306.15625 L 95.96875 306.15625 L 95.96875 443.59375 L 68.21875 443.59375 L 68.21875 306.15625 z M 149.875 308.875 L 149.875 344.03125 L 167.875 344.03125 L 167.875 365.03125 L 149.875 365.03125 L 149.875 405.15625 C 149.875 413.28125 150.03125 418.03125 150.34375 419.40625 C 150.71875 420.71875 151.5 421.8125 152.6875 422.6875 C 153.9375 423.5625 155.4375 424 157.1875 424 C 159.625 424 163.15625 423.15625 167.78125 421.46875 L 170.03125 441.90625 C 163.90625 444.53125 156.96875 445.84375 149.21875 445.84375 C 144.46875 445.84375 140.1875 445.0625 136.375 443.5 C 132.5625 441.875 129.75 439.8125 127.9375 437.3125 C 126.1875 434.75 124.96875 431.3125 124.28125 427 C 123.71875 423.9375 123.4375 417.75 123.4375 408.4375 L 123.4375 365.03125 L 111.34375 365.03125 L 111.34375 344.03125 L 123.4375 344.03125 L 123.4375 324.25 L 149.875 308.875 z M 224.125 341.78125 C 238.9375 341.78125 250.625 346.6875 259.1875 356.5 C 267.75 366.25 271.84375 381.21875 271.46875 401.40625 L 205.46875 401.40625 C 205.65625 409.21875 207.78125 415.3125 211.84375 419.6875 C 215.90625 424 220.96875 426.15625 227.03125 426.15625 C 231.15625 426.15625 234.625 425.03125 237.4375 422.78125 C 240.25 420.53125 242.375 416.90625 243.8125 411.90625 L 270.0625 416.3125 C 266.6875 425.9375 261.34375 433.28125 254.03125 438.34375 C 246.78125 443.34375 237.6875 445.84375 226.75 445.84375 C 209.4375 445.84375 196.625 440.1875 188.3125 428.875 C 181.75 419.8125 178.46875 408.375 178.46875 394.5625 C 178.46875 378.0625 182.78125 365.15625 191.40625 355.84375 C 200.03125 346.46875 210.9375 341.78125 224.125 341.78125 z M 346.28125 341.78125 C 352.65625 341.78125 358.1875 343.09375 362.875 345.71875 C 367.5625 348.34375 371.40625 352.3125 374.40625 357.625 C 378.78125 352.3125 383.5 348.34375 388.5625 345.71875 C 393.625 343.09375 399.03125 341.78125 404.78125 341.78125 C 412.09375 341.78125 418.28125 343.28125 423.34375 346.28125 C 428.40625 349.21875 432.1875 353.5625 434.6875 359.3125 C 436.5 363.5625 437.40625 370.4375 437.40625 379.9375 L 437.40625 443.59375 L 411.0625 443.59375 L 411.0625 386.6875 C 411.0625 376.8125 410.15625 370.4375 408.34375 367.5625 C 405.90625 363.8125 402.15625 361.9375 397.09375 361.9375 C 393.40625 361.9375 389.9375 363.0625 386.6875 365.3125 C 383.4375 367.5625 381.09375 370.875 379.65625 375.25 C 378.21875 379.5625 377.5 386.40625 377.5 395.78125 L 377.5 443.59375 L 351.15625 443.59375 L 351.15625 389.03125 C 351.15625 379.34375 350.6875 373.09375 349.75 370.28125 C 348.8125 367.46875 347.34375 365.375 345.34375 364 C 343.40625 362.625 340.75 361.9375 337.375 361.9375 C 333.3125 361.9375 329.65625 363.03125 326.40625 365.21875 C 323.15625 367.40625 320.8125 370.5625 319.375 374.6875 C 318 378.8125 317.3125 385.65625 317.3125 395.21875 L 317.3125 443.59375 L 290.96875 443.59375 L 290.96875 344.03125 L 315.25 344.03125 L 315.25 357.625 C 323.9375 347.0625 334.28125 341.78125 346.28125 341.78125 z M 225.71875 361.9375 C 219.96875 361.9375 215.21875 364.03125 211.46875 368.21875 C 207.71875 372.40625 205.875 378.09375 205.9375 385.28125 L 245.3125 385.28125 C 245.125 377.65625 243.15625 371.875 239.40625 367.9375 C 235.65625 363.9375 231.09375 361.9375 225.71875 361.9375 z " />
</svg>
