<?xml version="1.0" encoding="UTF-8" standalone="no"?>
<!-- Created with Inkscape (http://www.inkscape.org/) -->

<svg
   version="1.1"
   id="svg1"
   width="682.66669"
   height="682.66669"
   viewBox="0 0 682.66669 682.66669"
   sodipodi:docname="Locked Chest.svg"
   inkscape:version="1.4.2 (f4327f4, 2025-05-13)"
   xml:space="preserve"
   xmlns:inkscape="http://www.inkscape.org/namespaces/inkscape"
   xmlns:sodipodi="http://sodipodi.sourceforge.net/DTD/sodipodi-0.dtd"
   xmlns="http://www.w3.org/2000/svg"
   xmlns:svg="http://www.w3.org/2000/svg"><defs
     id="defs1"><inkscape:path-effect
       effect="simplify"
       id="path-effect29"
       is_visible="true"
       lpeversion="1.3"
       threshold="10.869565"
       steps="1"
       smooth_angles="360"
       helper_size="0"
       simplify_individual_paths="false"
       simplify_just_coalesce="false" /><inkscape:path-effect
       effect="simplify"
       id="path-effect28"
       is_visible="true"
       lpeversion="1.3"
       threshold="10.869565"
       steps="1"
       smooth_angles="360"
       helper_size="0"
       simplify_individual_paths="false"
       simplify_just_coalesce="false" /><inkscape:path-effect
       effect="simplify"
       id="path-effect27"
       is_visible="true"
       lpeversion="1.3"
       threshold="10.869565"
       steps="1"
       smooth_angles="360"
       helper_size="0"
       simplify_individual_paths="false"
       simplify_just_coalesce="false" /><inkscape:path-effect
       effect="simplify"
       id="path-effect26"
       is_visible="true"
       lpeversion="1.3"
       threshold="10.869565"
       steps="1"
       smooth_angles="360"
       helper_size="0"
       simplify_individual_paths="false"
       simplify_just_coalesce="false" /><inkscape:path-effect
       effect="simplify"
       id="path-effect25"
       is_visible="true"
       lpeversion="1.3"
       threshold="10.869565"
       steps="1"
       smooth_angles="360"
       helper_size="0"
       simplify_individual_paths="false"
       simplify_just_coalesce="false" /><inkscape:path-effect
       effect="simplify"
       id="path-effect24"
       is_visible="true"
       lpeversion="1.3"
       threshold="10.869565"
       steps="1"
       smooth_angles="360"
       helper_size="0"
       simplify_individual_paths="false"
       simplify_just_coalesce="false" /><inkscape:path-effect
       effect="simplify"
       id="path-effect23"
       is_visible="true"
       lpeversion="1.3"
       threshold="10.869565"
       steps="1"
       smooth_angles="360"
       helper_size="0"
       simplify_individual_paths="false"
       simplify_just_coalesce="false" /><inkscape:path-effect
       effect="simplify"
       id="path-effect22"
       is_visible="true"
       lpeversion="1.3"
       threshold="10.869565"
       steps="1"
       smooth_angles="360"
       helper_size="0"
       simplify_individual_paths="false"
       simplify_just_coalesce="false" /><inkscape:path-effect
       effect="simplify"
       id="path-effect21"
       is_visible="true"
       lpeversion="1.3"
       threshold="10.869565"
       steps="1"
       smooth_angles="360"
       helper_size="0"
       simplify_individual_paths="false"
       simplify_just_coalesce="false" /><inkscape:path-effect
       effect="simplify"
       id="path-effect20"
       is_visible="true"
       lpeversion="1.3"
       threshold="10.869565"
       steps="1"
       smooth_angles="360"
       helper_size="0"
       simplify_individual_paths="false"
       simplify_just_coalesce="false" /><inkscape:path-effect
       effect="simplify"
       id="path-effect19"
       is_visible="true"
       lpeversion="1.3"
       threshold="10.869565"
       steps="1"
       smooth_angles="360"
       helper_size="0"
       simplify_individual_paths="false"
       simplify_just_coalesce="false" /><inkscape:path-effect
       effect="simplify"
       id="path-effect18"
       is_visible="true"
       lpeversion="1.3"
       threshold="10.869565"
       steps="1"
       smooth_angles="360"
       helper_size="0"
       simplify_individual_paths="false"
       simplify_just_coalesce="false" /><inkscape:path-effect
       effect="simplify"
       id="path-effect17"
       is_visible="true"
       lpeversion="1.3"
       threshold="10.869565"
       steps="1"
       smooth_angles="360"
       helper_size="0"
       simplify_individual_paths="false"
       simplify_just_coalesce="false" /><inkscape:path-effect
       effect="simplify"
       id="path-effect16"
       is_visible="true"
       lpeversion="1.3"
       threshold="10.869565"
       steps="1"
       smooth_angles="360"
       helper_size="0"
       simplify_individual_paths="false"
       simplify_just_coalesce="false" /><inkscape:path-effect
       effect="simplify"
       id="path-effect15"
       is_visible="true"
       lpeversion="1.3"
       threshold="10.869565"
       steps="1"
       smooth_angles="360"
       helper_size="0"
       simplify_individual_paths="false"
       simplify_just_coalesce="false" /><inkscape:path-effect
       effect="simplify"
       id="path-effect14"
       is_visible="true"
       lpeversion="1.3"
       threshold="10.869565"
       steps="1"
       smooth_angles="360"
       helper_size="0"
       simplify_individual_paths="false"
       simplify_just_coalesce="false" /><inkscape:path-effect
       effect="simplify"
       id="path-effect13"
       is_visible="true"
       lpeversion="1.3"
       threshold="10.869565"
       steps="1"
       smooth_angles="360"
       helper_size="0"
       simplify_individual_paths="false"
       simplify_just_coalesce="false" /><inkscape:path-effect
       effect="simplify"
       id="path-effect12"
       is_visible="true"
       lpeversion="1.3"
       threshold="10.869565"
       steps="1"
       smooth_angles="360"
       helper_size="0"
       simplify_individual_paths="false"
       simplify_just_coalesce="false" /><inkscape:path-effect
       effect="powerstroke"
       message=""
       id="path-effect11"
       is_visible="true"
       lpeversion="1.3"
       scale_width="1"
       interpolator_type="CentripetalCatmullRom"
       interpolator_beta="0.75"
       start_linecap_type="round"
       end_linecap_type="round"
       offset_points="1,27.71838"
       linejoin_type="spiro"
       miter_limit="4"
       not_jump="true"
       sort_points="true" /><inkscape:path-effect
       effect="powerstroke"
       message=""
       id="path-effect10"
       is_visible="true"
       lpeversion="1.3"
       scale_width="1"
       interpolator_type="CentripetalCatmullRom"
       interpolator_beta="0.75"
       start_linecap_type="round"
       end_linecap_type="round"
       offset_points="0.42688827,17.047751 | 2.6356281,22.07368"
       linejoin_type="spiro"
       miter_limit="4"
       not_jump="true"
       sort_points="true" /><inkscape:path-effect
       effect="powerstroke"
       message=""
       id="path-effect9"
       is_visible="true"
       lpeversion="1.3"
       scale_width="1"
       interpolator_type="CentripetalCatmullRom"
       interpolator_beta="0.75"
       start_linecap_type="round"
       end_linecap_type="round"
       offset_points="0.8416487,17.42659"
       linejoin_type="spiro"
       miter_limit="4"
       not_jump="true"
       sort_points="true" /><inkscape:path-effect
       effect="powerstroke"
       message=""
       id="path-effect8"
       is_visible="true"
       lpeversion="1.3"
       scale_width="1"
       interpolator_type="CentripetalCatmullRom"
       interpolator_beta="0.75"
       start_linecap_type="round"
       end_linecap_type="round"
       offset_points="0.61257411,18.588362 | 0.80628706,16.340585"
       linejoin_type="spiro"
       miter_limit="4"
       not_jump="true"
       sort_points="true" /><inkscape:path-effect
       effect="powerstroke"
       message=""
       id="path-effect7"
       is_visible="true"
       lpeversion="1.3"
       scale_width="1"
       interpolator_type="CentripetalCatmullRom"
       interpolator_beta="0.75"
       start_linecap_type="round"
       end_linecap_type="round"
       offset_points="0.7224856,17.098262"
       linejoin_type="spiro"
       miter_limit="4"
       not_jump="true"
       sort_points="true" /><inkscape:path-effect
       effect="powerstroke"
       message=""
       id="path-effect6"
       is_visible="true"
       lpeversion="1.3"
       scale_width="1"
       interpolator_type="CentripetalCatmullRom"
       interpolator_beta="0.75"
       start_linecap_type="round"
       end_linecap_type="round"
       offset_points="0.58578644,16.668912"
       linejoin_type="spiro"
       miter_limit="4"
       not_jump="true"
       sort_points="true" /><inkscape:path-effect
       effect="powerstroke"
       message=""
       id="path-effect5"
       is_visible="true"
       lpeversion="1.3"
       scale_width="1"
       interpolator_type="CentripetalCatmullRom"
       interpolator_beta="0.75"
       start_linecap_type="round"
       end_linecap_type="round"
       offset_points="2.2242934,16.744679"
       linejoin_type="spiro"
       miter_limit="4"
       not_jump="true"
       sort_points="true" /><inkscape:path-effect
       effect="powerstroke"
       message=""
       id="path-effect4"
       is_visible="true"
       lpeversion="1.3"
       scale_width="1"
       interpolator_type="CentripetalCatmullRom"
       interpolator_beta="0.75"
       start_linecap_type="round"
       end_linecap_type="round"
       offset_points="0.5,14.109644"
       linejoin_type="spiro"
       miter_limit="4"
       not_jump="true"
       sort_points="true" /><inkscape:path-effect
       effect="powerstroke"
       message=""
       id="path-effect3"
       is_visible="true"
       lpeversion="1.3"
       scale_width="1"
       interpolator_type="CentripetalCatmullRom"
       interpolator_beta="0.75"
       start_linecap_type="round"
       end_linecap_type="round"
       offset_points="0.5,0"
       linejoin_type="spiro"
       miter_limit="4"
       not_jump="true"
       sort_points="true" /><inkscape:path-effect
       effect="powerstroke"
       message=""
       id="path-effect1"
       is_visible="true"
       lpeversion="1.3"
       scale_width="1"
       interpolator_type="CentripetalCatmullRom"
       interpolator_beta="0.75"
       start_linecap_type="round"
       end_linecap_type="round"
       offset_points="0.8048059,14.825229"
       linejoin_type="spiro"
       miter_limit="4"
       not_jump="true"
       sort_points="true" /><inkscape:path-effect
       effect="spiro"
       id="path-effect2"
       is_visible="true"
       lpeversion="1" /></defs><sodipodi:namedview
     id="namedview1"
     pagecolor="#ffffff"
     bordercolor="#000000"
     borderopacity="0.25"
     inkscape:showpageshadow="2"
     inkscape:pageopacity="0.0"
     inkscape:pagecheckerboard="0"
     inkscape:deskcolor="#d1d1d1"
     inkscape:zoom="0.46"
     inkscape:cx="352.17391"
     inkscape:cy="350"
     inkscape:window-width="1280"
     inkscape:window-height="650"
     inkscape:window-x="-6"
     inkscape:window-y="-6"
     inkscape:window-maximized="1"
     inkscape:current-layer="svg1"
     showgrid="false" /><path
     id="path3"
     style="display:inline;fill:#000000;fill-opacity:1;stroke:none;stroke-width:5;stroke-opacity:0.67292"
     inkscape:label="Chest Bottom"
     d="M 207.2168 58.203125 C 185.99157 87.946272 160.53705 111.60147 137.34961 122.85547 L 137.34961 175.63867 C 142.63212 173.42609 148.82321 170.54605 155.77344 166.82227 C 179.56951 154.07283 211.30147 131.67829 242.36719 92.9375 L 246.12109 88.257812 L 340.83398 88.257812 L 341.83398 88.257812 L 436.54688 88.257812 L 440.30078 92.9375 C 471.36649 131.67829 503.09846 154.07283 526.89453 166.82227 C 533.84476 170.54605 540.03584 173.42609 545.31836 175.63867 L 545.31836 122.85547 C 522.13093 111.60147 496.67641 87.946272 475.45117 58.203125 L 341.83398 58.203125 L 340.83398 58.203125 L 207.2168 58.203125 z M 261.0957 113.25781 L 261.0957 298.48242 C 259.315 298.50031 257.5344 298.51703 255.75391 298.53516 L 255.75391 115.82617 C 224.35008 152.93803 192.36987 175.57753 167.58008 188.85938 C 155.4441 195.36158 145.15967 199.56221 137.34961 202.31055 L 137.34961 374.64844 L 194.75391 374.64844 C 194.40853 381.41164 194.31962 388.23326 194.52148 395.06641 C 167.71558 395.06445 138.89009 395.06266 107.92773 395.06055 L 106.53906 137.12109 C 76.441419 149.04184 54.835938 156.35352 54.835938 156.35352 L 54.835938 408.47266 L 195.30078 408.47266 C 195.65574 412.51395 196.12282 416.54791 196.70703 420.56445 L 62.064453 420.56445 C 62.064453 420.56445 121.22031 581.12794 78.966797 675.49414 L 340.16797 675.49414 L 340.83398 675.49414 L 341.83398 675.49414 L 342.5 675.49414 L 603.70117 675.49414 C 561.44766 581.12794 620.60352 420.56445 620.60352 420.56445 L 485.95898 420.56445 C 486.54325 416.54791 487.01021 412.51396 487.36523 408.47266 L 627.83203 408.47266 L 627.83203 156.35352 C 627.83203 156.35352 606.22655 149.04184 576.12891 137.12109 L 574.74023 395.06055 C 543.7781 395.06276 514.95268 395.06448 488.14648 395.06641 C 488.34847 388.23326 488.25737 381.41165 487.91211 374.64844 L 545.31836 374.64844 L 545.31836 202.31055 C 537.50829 199.56221 527.22387 195.36157 515.08789 188.85938 C 490.2981 175.57753 458.31789 152.93803 426.91406 115.82617 L 426.91406 298.25586 C 425.13335 298.2316 423.35275 298.20935 421.57227 298.1875 L 421.57227 113.25781 L 341.83398 113.25781 L 340.83398 113.25781 L 261.0957 113.25781 z M 341.39062 331.34375 C 377.01963 331.22544 412.59622 331.45538 448.13867 332.15039 C 456.29125 368.42319 457.75999 412.44782 445.24219 446.22461 C 431.31174 483.81314 404.15835 510.38889 341.41211 510.09766 L 341.33398 510.09766 L 341.25586 510.09766 C 278.50888 510.38889 251.35413 483.81309 237.42383 446.22461 C 224.91621 412.47501 226.37247 368.49258 234.50781 332.23633 C 270.17577 331.86875 305.81379 331.46189 341.39062 331.34375 z M 341.33398 339.39648 C 313.86897 339.39654 291.60359 361.66193 291.60352 389.12695 C 291.60441 408.73895 303.13116 426.51863 321.03516 434.52344 L 321.03516 496.87305 L 325.82617 496.87305 L 325.82617 496.89062 L 377.29883 496.89062 L 377.29883 474.10156 L 360.40625 474.10156 L 360.40625 464.66992 L 377.29883 464.66992 L 377.29883 442.35742 L 360.40625 442.35742 L 360.40625 435.05273 C 378.96586 427.34479 391.062 409.22348 391.0625 389.12695 C 391.06244 361.66194 368.79898 339.39655 341.33398 339.39648 z M 120.80273 456.14844 L 205.43164 456.14844 C 205.63533 456.71721 205.84274 457.28494 206.05273 457.85156 C 208.65161 464.86417 211.82081 471.67148 215.57031 478.18164 L 152.14844 478.18164 C 159.5723 504.45691 173.31752 564.26393 163.57422 621.13672 L 264.81055 621.13672 L 264.81055 526.06641 C 266.48993 526.97068 268.20149 527.8451 269.94531 528.6875 L 269.94531 621.13672 L 340.16797 621.13672 L 340.83398 621.13672 L 341.83398 621.13672 L 342.5 621.13672 L 412.72266 621.13672 L 412.72266 528.6875 C 414.46648 527.84507 416.17804 526.97072 417.85742 526.06641 L 417.85742 621.13672 L 519.09375 621.13672 C 509.35045 564.26393 523.09567 504.45691 530.51953 478.18164 L 467.0957 478.18164 C 470.84516 471.67147 474.01438 464.86417 476.61328 457.85156 C 476.82328 457.28494 477.03068 456.71721 477.23438 456.14844 L 561.86523 456.14844 L 556.99219 470.53516 C 556.99219 470.53516 527.50168 560.46047 544.4707 629.6582 L 547.78516 643.16992 L 342.5 643.16992 L 341.83398 643.16992 L 340.83398 643.16992 L 340.16797 643.16992 L 134.88281 643.16992 L 138.19727 629.6582 C 155.1663 560.46047 125.67578 470.53516 125.67578 470.53516 L 120.80273 456.14844 z " /></svg>
