<?xml version="1.0" encoding="UTF-8" standalone="no"?>
<!-- Created with Inkscape (http://www.inkscape.org/) -->

<svg
   version="1.1"
   width="682.66669"
   height="682.66669"
   viewBox="0 0 682.66669 682.66669"
   xml:space="preserve"
   xmlns="http://www.w3.org/2000/svg"
   xmlns:svg="http://www.w3.org/2000/svg">
  <path
     style="display:inline;fill:#000000;fill-opacity:1;stroke:none;stroke-width:5;stroke-opacity:0.67292"
     d="M 207.21615,58.203125 C 185.99092,87.946272 160.5364,111.60147 137.34896,122.85547 v 52.7832 c 5.28251,-2.21258 11.4736,-5.09262 18.42383,-8.8164 23.79607,-12.74944 55.52803,-35.14398 86.59375,-73.88477 l 3.75391,-4.679688 h 94.71289 1 94.71289 l 3.75391,4.679688 c 31.06571,38.74079 62.79768,61.13533 86.59375,73.88477 6.95023,3.72378 13.14131,6.60382 18.42383,8.8164 v -52.7832 c -23.18743,-11.254 -48.64195,-34.909198 -69.86719,-64.652345 h -133.61719 -1 z m 53.87891,55.054685 v 231.17578 h 79.73828 1 79.73828 V 113.25781 h -79.73828 -1 z m -5.3418,2.56836 c -31.40383,37.11186 -63.38404,59.75136 -88.17383,73.03321 -12.13598,6.50221 -22.42041,10.70283 -30.23047,13.45117 v 172.33789 h 118.4043 z m 171.16016,0 v 258.82227 h 118.4043 V 202.31055 c -7.81007,-2.74834 -18.09449,-6.94897 -30.23047,-13.45117 -24.78979,-13.28185 -56.77,-35.92135 -88.17383,-73.03321 z m -320.375,21.29492 c -30.097646,11.92075 -51.703125,19.23243 -51.703125,19.23243 v 252.11914 h 285.998045 1 285.99805 V 156.35352 c 0,0 -21.60549,-7.31168 -51.70313,-19.23243 l -1.38867,257.93946 c -97.66543,0.007 -174.06734,0.0117 -232.90625,0.0137 -0.12631,0 -0.37385,-1e-5 -0.5,0 -0.12615,-1e-5 -0.37369,0 -0.5,0 -58.83891,-0.002 -135.24086,-0.007 -232.90625,-0.0137 z M 62.063811,420.56445 c 0,0 59.155859,160.56349 16.902343,254.92969 h 261.201166 0.66602 1 0.66602 261.20117 c -42.25351,-94.3662 16.90234,-254.92969 16.90234,-254.92969 h -278.10351 -0.66602 -1 -0.66602 z m 58.738279,35.58399 h 219.36523 0.66602 1 0.66602 219.36523 l -4.87305,14.38672 c 0,0 -29.4905,89.92531 -12.52148,159.12304 l 3.31445,13.51172 h -205.28515 -0.66602 -1 -0.66602 -205.28515 l 3.31445,-13.51172 C 155.16565,560.46047 125.67514,470.53516 125.67514,470.53516 Z m 31.3457,22.0332 c 7.42386,26.27527 21.16908,86.08229 11.42578,142.95508 H 264.8099 V 478.18164 Z m 117.79688,0 v 142.95508 h 70.22265 0.66602 1 0.66602 70.22265 V 478.18164 h -70.22265 -0.66602 -1 -0.66602 z m 147.91211,0 v 142.95508 h 101.23633 c -9.7433,-56.87279 4.00192,-116.67981 11.42578,-142.95508 z" />
</svg>
